<?xml version="1.0" standalone="no"?>
<!DOCTYPE svg PUBLIC "-//W3C//DTD SVG 20010904//EN"
 "http://www.w3.org/TR/2001/REC-SVG-20010904/DTD/svg10.dtd">
<svg version="1.0" xmlns="http://www.w3.org/2000/svg"
 width="50.000000pt" height="50.000000pt" viewBox="0 0 50.000000 50.000000"
 preserveAspectRatio="xMidYMid meet">

<g transform="translate(0.000000,50.000000) scale(0.100000,-0.100000)"
fill="#000000" stroke="none">
<path d="M161 483 c-88 -31 -161 -136 -161 -233 0 -132 118 -250 250 -250 60
0 130 30 175 75 188 188 -12 497 -264 408z m-13 -169 c12 -8 22 -26 22 -40 0
-22 -4 -24 -49 -24 -28 0 -53 5 -56 10 -11 17 6 51 28 60 30 12 30 12 55 -6z
m277 -8 c37 -37 24 -56 -36 -56 -62 0 -76 22 -35 57 34 29 41 29 71 -1z m-150
-108 c34 16 40 15 25 -3 -19 -23 -100 -18 -100 6 0 5 11 3 25 -3 19 -8 31 -8
50 0z"/>
</g>
</svg>
